<svg width="152" height="22" viewBox="0 0 152 22" fill="none" xmlns="http://www.w3.org/2000/svg">
<path d="M15.1118 13.1524H25.5955V20.5005H0V18.154L10.9875 7.22456H0.472242V0.524861H25.5641V2.8713L15.1118 13.1524ZM40.8018 20.871C32.3014 20.871 27.8623 16.3633 27.8623 10.559V10.3429C27.8623 4.53851 32.3014 0 40.8018 0C49.3021 0 53.206 4.50763 53.206 9.97237V11.8557H38.7868V12.1953C38.7868 14.0169 40.2665 14.6652 42.6278 14.6652C45.1149 14.6652 47.0354 14.233 49.1447 13.6464L52.0411 17.7218C49.3336 19.5742 45.9649 20.871 40.8018 20.871ZM42.8796 9.04614C42.8796 7.62593 42.3759 6.11309 40.8018 6.11309C39.2276 6.11309 38.7868 7.6568 38.7868 9.04614V9.16964H42.8796V9.04614ZM72.3475 20.5313L68.79 14.7579L66.4917 17.1043V20.5313H55.8191V0.524861H66.4917V8.18166L72.2846 0.524861H83.5869L75.9681 9.07701L83.6499 20.5313H72.3475ZM99.4228 21.2723C89.8205 21.2723 86.0111 17.1661 86.0111 11.9483V0.524861H96.6523V11.1765C96.6523 13.6773 97.4079 14.7579 99.958 14.7579C102.508 14.7579 103.201 13.6773 103.201 11.1765V0.524861H112.677V11.9483C112.677 17.1661 109.057 21.2723 99.4228 21.2723ZM132.291 20.5313C131.063 20.5313 129.835 19.2038 129.835 17.4439V15.6223C129.835 14.2021 129.52 13.492 127.978 13.492H126.215V20.5622H115.573V0.524861H131.945C137.486 0.524861 140.823 2.90217 140.823 6.11309V6.39096C140.823 8.30516 138.965 10.2811 135.943 10.8677C139.5 11.2073 140.476 13.245 140.476 15.5606V17.2278C140.476 18.4936 140.791 19.4199 141.578 20.2535V20.5622H132.291V20.5313ZM130.056 7.99642C130.056 6.94669 129.457 6.54533 127.883 6.54533H126.183V9.72537H127.883C129.489 9.72537 130.056 9.07701 130.056 8.08904V7.99642Z" fill="#E9FDB8"/>
<path d="M147.56 21.5503C150.012 21.5503 151.999 19.6013 151.999 17.197C151.999 14.7928 150.012 12.8438 147.56 12.8438C145.109 12.8438 143.121 14.7928 143.121 17.197C143.121 19.6013 145.109 21.5503 147.56 21.5503Z" fill="#E9FDB8"/>
</svg>
